HIERARCHY
ROOT hip
{
  OFFSET 0 0 0
  CHANNELS 6 Xposition Yposition Zposition Zrotation Yrotation Xrotation
  JOINT abdomen
  {
    OFFSET 0 20.6881 -0.73152
    CHANNELS 3 Zrotation Xrotation Yrotation
    JOINT chest
    {
      OFFSET 0 11.7043 -0.48768
      CHANNELS 3 Zrotation Xrotation Yrotation
      JOINT neck
      {
        OFFSET 0 22.1894 -2.19456
        CHANNELS 3 Zrotation Xrotation Yrotation
        JOINT head
        {
          OFFSET -0.24384 7.07133 1.2192
          CHANNELS 3 Zrotation Xrotation Yrotation
          JOINT leftEye
          {
            OFFSET 4.14528 8.04674 8.04672
            CHANNELS 3 Zrotation Xrotation Yrotation
            End Site
            {
              OFFSET 1 0 0
            }
          }
          JOINT rightEye
          {
            OFFSET -3.6576 8.04674 8.04672
            CHANNELS 3 Zrotation Xrotation Yrotation
            End Site
            {
              OFFSET 1 0 0
            }
          }
        }
      }
      JOINT rCollar
      {
        OFFSET -2.68224 19.2634 -4.8768
        CHANNELS 3 Zrotation Xrotation Yrotation
        JOINT rShldr
        {
          OFFSET -8.77824 -1.95073 1.46304
          CHANNELS 3 Zrotation Xrotation Yrotation
          JOINT rForeArm
          {
            OFFSET -28.1742 -1.7115 0.48768
            CHANNELS 3 Zrotation Xrotation Yrotation
            JOINT rHand
            {
              OFFSET -22.5879 0.773209 7.07136
              CHANNELS 3 Zrotation Xrotation Yrotation
              JOINT rThumb1
              {
                OFFSET -1.2192 -0.487915 3.41376
                CHANNELS 3 Zrotation Xrotation Yrotation
                JOINT rThumb2
                {
                  OFFSET -3.37035 -0.52449 3.41376
                  CHANNELS 3 Zrotation Xrotation Yrotation
                  End Site
                  {
                    OFFSET -1.78271 -1.18214 1.43049
                  }
                }
              }
              JOINT rIndex1
              {
                OFFSET -7.75947 0.938293 5.60832
                CHANNELS 3 Zrotation Xrotation Yrotation
                JOINT rIndex2
                {
                  OFFSET -2.54057 -0.884171 1.56538
                  CHANNELS 3 Zrotation Xrotation Yrotation
                  End Site
                  {
                    OFFSET -1.62519 -0.234802 1.16502
                  }
                }
              }
              JOINT rMid1
              {
                OFFSET -8.24714 1.18213 3.41376
                CHANNELS 3 Zrotation Xrotation Yrotation
                JOINT rMid2
                {
                  OFFSET -3.10165 -0.590103 1.0647
                  CHANNELS 3 Zrotation Xrotation Yrotation
                  End Site
                  {
                    OFFSET -2.48547 -0.328903 0.83742
                  }
                }
              }
              JOINT rRing1
              {
                OFFSET -8.82822 0.546677 1.51678
                CHANNELS 3 Zrotation Xrotation Yrotation
                JOINT rRing2
                {
                  OFFSET -2.60934 -0.819778 -0.0198488
                  CHANNELS 3 Zrotation Xrotation Yrotation
                  End Site
                  {
                    OFFSET -2.33842 -0.294052 0.168128
                  }
                }
              }
              JOINT rPinky1
              {
                OFFSET -8.27202 -0.0477905 -0.4584
                CHANNELS 3 Zrotation Xrotation Yrotation
                JOINT rPinky2
                {
                  OFFSET -1.82734 -0.647385 -0.700984
                  CHANNELS 3 Zrotation Xrotation Yrotation
                  End Site
                  {
                    OFFSET -1.69225 -0.51767 -0.607171
                  }
                }
              }
            }
          }
        }
      }
      JOINT lCollar
      {
        OFFSET 2.68224 19.2634 -4.8768
        CHANNELS 3 Zrotation Xrotation Yrotation
        JOINT lShldr
        {
          OFFSET 8.77824 -1.95073 1.46304
          CHANNELS 3 Zrotation Xrotation Yrotation
          JOINT lForeArm
          {
            OFFSET 28.1742 -1.7115 0.48768
            CHANNELS 3 Zrotation Xrotation Yrotation
            JOINT lHand
            {
              OFFSET 22.5879 0.773209 7.07136
              CHANNELS 3 Zrotation Xrotation Yrotation
              JOINT lThumb1
              {
                OFFSET 1.2192 -0.487915 3.41376
                CHANNELS 3 Zrotation Xrotation Yrotation
                JOINT lThumb2
                {
                  OFFSET 3.37035 -0.52449 3.41376
                  CHANNELS 3 Zrotation Xrotation Yrotation
                  End Site
                  {
                    OFFSET 1.78271 -1.18214 1.43049
                  }
                }
              }
              JOINT lIndex1
              {
                OFFSET 7.75947 0.938293 5.60832
                CHANNELS 3 Zrotation Xrotation Yrotation
                JOINT lIndex2
                {
                  OFFSET 2.54057 -0.884171 1.56538
                  CHANNELS 3 Zrotation Xrotation Yrotation
                  End Site
                  {
                    OFFSET 1.62519 -0.234802 1.16502
                  }
                }
              }
              JOINT lMid1
              {
                OFFSET 8.24714 1.18213 3.41376
                CHANNELS 3 Zrotation Xrotation Yrotation
                JOINT lMid2
                {
                  OFFSET 3.10165 -0.590103 1.0647
                  CHANNELS 3 Zrotation Xrotation Yrotation
                  End Site
                  {
                    OFFSET 2.48547 -0.328903 0.83742
                  }
                }
              }
              JOINT lRing1
              {
                OFFSET 8.82822 0.546677 1.51678
                CHANNELS 3 Zrotation Xrotation Yrotation
                JOINT lRing2
                {
                  OFFSET 2.60934 -0.819778 -0.0198488
                  CHANNELS 3 Zrotation Xrotation Yrotation
                  End Site
                  {
                    OFFSET 2.33842 -0.294052 0.168128
                  }
                }
              }
              JOINT lPinky1
              {
                OFFSET 8.27202 -0.0477905 -0.4584
                CHANNELS 3 Zrotation Xrotation Yrotation
                JOINT lPinky2
                {
                  OFFSET 1.82734 -0.647385 -0.700984
                  CHANNELS 3 Zrotation Xrotation Yrotation
                  End Site
                  {
                    OFFSET 1.69225 -0.51767 -0.607171
                  }
                }
              }
            }
          }
        }
      }
    }
  }
  JOINT rButtock
  {
    OFFSET -8.77824 4.35084 1.2192
    CHANNELS 3 Zrotation Xrotation Yrotation
    JOINT rThigh
    {
      OFFSET 0 -1.70687 -2.19456
      CHANNELS 3 Zrotation Xrotation Yrotation
      JOINT rShin
      {
        OFFSET 0 -36.8199 0.73152
        CHANNELS 3 Zrotation Xrotation Yrotation
        JOINT rFoot
        {
          OFFSET 0.73152 -45.1104 -5.12064
          CHANNELS 3 Zrotation Xrotation Yrotation
          End Site
          {
            OFFSET -1.1221 -3.69964 12.103
          }
        }
      }
    }
  }
  JOINT lButtock
  {
    OFFSET 8.77824 4.35084 1.2192
    CHANNELS 3 Zrotation Xrotation Yrotation
    JOINT lThigh
    {
      OFFSET 0 -1.70687 -2.19456
      CHANNELS 3 Zrotation Xrotation Yrotation
      JOINT lShin
      {
        OFFSET 0 -36.8199 0.73152
        CHANNELS 3 Zrotation Xrotation Yrotation
        JOINT lFoot
        {
          OFFSET -0.73152 -45.1104 -5.12064
          CHANNELS 3 Zrotation Xrotation Yrotation
          End Site
          {
            OFFSET 1.1221 -3.69964 12.103
          }
        }
      }
    }
  }
}
MOTION
Frames:	4
Frame Time:	0.00833333
140.171 -64.1644 -0.173969 0.0 0.0 0.0 -0.748005 -0.00481025 -0.0211917 -0.206623 -0.00702247 -0.0358037 -2.07735e-14 -1.59028e-15 -8.69684e-17 -6.24153e-14 3.18055e-15 -2.85753e-16 -0.0 0.0 0.0 -0.0 0.0 0.0 -1.03883e-14 -1.51418e-17 9.93923e-17 -2.15572e-13 -2.17421e-16 -7.95139e-16 -3.76165e-12 1.11399e-12 3.81667e-14 -4.30246e-11 -1.19117e-12 -2.95792e-13 -1.01494e-10 -1.70678e-13 -5.37514e-13 -1.75287e-10 -2.95792e-13 -9.34288e-13 -1.01488e-10 -1.69365e-13 -5.47055e-13 7.73091 5.47488 0.417314 -1.01493e-10 -1.71054e-13 -5.34333e-13 2.90554 0.965183 0.102902 -1.01485e-10 -1.70358e-13 -5.42285e-13 10.2786 0.731801 0.0259123 -1.01498e-10 -1.68967e-13 -5.37514e-13 2.22167 -0.733487 -0.20892 -1.03854e-14 -1.51418e-17 -1.98785e-16 -2.20692e-13 -2.04997e-16 -2.18663e-15 -3.75633e-12 -1.13685e-12 6.36111e-15 -4.30184e-11 1.0627e-12 -2.54444e-13 -1.01469e-10 -1.65436e-13 -5.47055e-13 -1.75228e-10 -2.83069e-13 -9.30312e-13 -1.01475e-10 -1.63401e-13 -5.37514e-13 -7.73091 5.47488 -0.417314 -1.01469e-10 -1.65389e-13 -5.40694e-13 -2.90554 0.965183 -0.102902 -1.01478e-10 -1.64594e-13 -5.39899e-13 -10.2786 0.731801 -0.0259123 -1.01469e-10 -1.64991e-13 -5.43875e-13 -2.22167 -0.733487 0.20892 -2.03217e-16 0.0 -3.88251e-19 -0.106454 -2.11406 -0.0168835 -0.00852608 -1.7222 -0.0716381 -0.459802 3.83676 0.129353 2.03217e-16 0.0 3.88251e-19 -1.04173 -4.96748 0.0902586 0.000852373 3.44623 -0.00735446 0.480342 1.52184 -0.0854621
60.9309 14.1358 -25.2033 -66.3547 73.1968 30.3827 -3.009 -1.35825 3.24013 2.78241 0.0307637 0.948382 0.969845 -1.80653 0.47918 -4.117 -9.65562 -0.369188 -0.0 0.0 0.0 -0.0 0.0 0.0 5.21856e-15 8.04333e-13 -7.8188e-14 20.7923 -31.8007 1.96518 -2.1733 -0.769688 3.59424 3.3819 -42.7929 -1.19449 -5.14216e-10 -1.85055e-10 -2.4971e-10 -7.83028e-10 -2.5158e-10 -4.38456e-10 -5.14211e-10 -1.85054e-10 -2.49724e-10 7.73091 5.47488 0.417314 -5.14217e-10 -1.85055e-10 -2.49707e-10 2.90554 0.965183 0.102902 -5.14212e-10 -1.85055e-10 -2.49714e-10 10.2786 0.731801 0.0259123 -5.14221e-10 -1.85053e-10 -2.49709e-10 2.22167 -0.733487 -0.20892 5.23276e-15 8.04328e-13 -7.84613e-14 -17.5184 32.8902 -3.2982 4.68264 -2.22865 -7.20102 -0.147051 -8.53292 1.15194 -8.14192e-10 -8.47472e-11 6.08674e-10 -1.42025e-09 -1.45064e-10 1.03422e-09 -8.14196e-10 -8.47454e-11 6.08684e-10 -7.73091 5.47488 -0.417314 -8.14192e-10 -8.47471e-11 6.08679e-10 -2.90554 0.965183 -0.102902 -8.14199e-10 -8.47466e-11 6.08681e-10 -10.2786 0.731801 -0.0259123 -8.14191e-10 -8.47459e-11 6.08676e-10 -2.22167 -0.733487 0.20892 -2.03217e-16 0.0 -3.88251e-19 2.48356 -10.9061 -14.6359 -0.473908 18.9402 0.108809 -0.482145 -4.17454 -2.88939 2.03217e-16 0.0 3.88251e-19 1.22171 -4.792 1.88123 0.000751758 9.07084 -0.103567 0.464593 -2.54291 -2.58856
60.9107 14.1657 -25.201 -66.7485 73.3104 30.1122 -5.22683 -2.77249 6.69455 5.94202 0.0744191 1.98863 2.02252 -3.72549 0.987249 -8.60801 -19.8546 -0.792181 -0.0 0.0 0.0 -0.0 0.0 0.0 1.96937e-14 1.69177e-12 -1.65299e-13 48.1697 -65.2818 8.27728 -4.37036 -1.57535 7.4032 -33.2495 -87.2873 -41.9047 -9.82947e-10 -4.15264e-10 -5.47008e-10 -1.47217e-09 -5.71576e-10 -9.57783e-10 -9.82943e-10 -4.15263e-10 -5.47027e-10 7.73091 5.47488 0.417314 -9.82947e-10 -4.15264e-10 -5.47005e-10 2.90554 0.965183 0.102902 -9.82946e-10 -4.15263e-10 -5.47011e-10 10.2786 0.731801 0.0259123 -9.82951e-10 -4.15262e-10 -5.47005e-10 2.22167 -0.733487 -0.20892 1.97229e-14 1.69176e-12 -1.65547e-13 -26.1307 67.0208 -14.7124 9.027 -4.46588 -14.8454 0.0867972 -17.495 2.45144 -1.65048e-09 -1.77975e-10 1.33757e-09 -2.88152e-09 -3.04541e-10 2.27307e-09 -1.65048e-09 -1.77974e-10 1.33758e-09 -7.73091 5.47488 -0.417314 -1.65048e-09 -1.77975e-10 1.33757e-09 -2.90554 0.965183 -0.102902 -1.65048e-09 -1.77975e-10 1.33758e-09 -10.2786 0.731801 -0.0259123 -1.65047e-09 -1.77973e-10 1.33757e-09 -2.22167 -0.733487 0.20892 -2.03217e-16 0.0 -3.88251e-19 0.361369 -18.1136 -31.2396 -1.14308 40.7831 0.379679 -1.43997 -12.5822 -6.22043 2.03217e-16 0.0 3.88251e-19 3.60723 -4.59197 3.77949 0.0218904 15.0134 -0.209806 0.0600481 -6.81464 -5.27676
60.882 14.2063 -25.2003 -67.2039 73.4333 29.8362 -7.07027 -4.01263 9.78427 8.75657 0.106211 2.91676 3.00052 -5.41808 1.44328 -12.7696 -28.9617 -1.24796 -0.0 0.0 0.0 -0.0 0.0 0.0 3.64322e-14 2.41303e-12 -2.34763e-13 -163.214 -82.604 137.278 -6.2319 -2.27275 10.7903 -164.107 -51.5265 -175.771 -1.33966e-09 -5.54824e-10 -7.48055e-10 -1.99851e-09 -7.54148e-10 -1.3135e-09 -1.33966e-09 -5.54824e-10 -7.48078e-10 7.73091 5.47488 0.417314 -1.33966e-09 -5.54824e-10 -7.48052e-10 2.90554 0.965183 0.102902 -1.33966e-09 -5.54823e-10 -7.48057e-10 10.2786 0.731801 0.0259123 -1.33967e-09 -5.54822e-10 -7.48051e-10 2.22167 -0.733487 -0.20892 3.64691e-14 2.41301e-12 -2.34986e-13 79.0452 77.9205 -136.337 12.4032 -6.26441 -21.7229 0.682298 -25.555 3.78865 -2.23964e-09 -2.53911e-10 1.82712e-09 -3.9103e-09 -4.34626e-10 3.10451e-09 -2.23964e-09 -2.53909e-10 1.82713e-09 -7.73091 5.47488 -0.417314 -2.23964e-09 -2.53911e-10 1.82712e-09 -2.90554 0.965183 -0.102902 -2.23964e-09 -2.53911e-10 1.82712e-09 -10.2786 0.731801 -0.0259123 -2.23964e-09 -2.53908e-10 1.82712e-09 -2.22167 -0.733487 0.20892 -2.03217e-16 0.0 -3.88251e-19 -5.021 -21.1264 -47.0553 -2.09422 60.2618 0.911182 -3.17398 -19.9591 -9.47731 2.03217e-16 0.0 3.88251e-19 5.7155 -4.42863 5.46048 0.0606303 20.3198 -0.31152 -0.644007 -10.5856 -7.71931
